<?xml version="1.0" standalone="no"?>
<!DOCTYPE svg PUBLIC "-//W3C//DTD SVG 20010904//EN" "http://www.w3.org/TR/2001/REC-SVG-20010904/DTD/svg10.dtd">
<!-- Created using Krita: https://krita.org -->
<svg xmlns="http://www.w3.org/2000/svg" 
    xmlns:xlink="http://www.w3.org/1999/xlink"
    xmlns:krita="http://krita.org/namespaces/svg/krita"
    xmlns:sodipodi="http://sodipodi.sourceforge.net/DTD/sodipodi-0.dtd"
    width="184.32pt"
    height="184.32pt"
    viewBox="0 0 184.32 184.32">
<defs/>
<rect id="shape0" transform="matrix(0.72 0 0 0.72 0 0)" fill="none" stroke-opacity="0" stroke="#000000" stroke-width="0" stroke-linecap="square" stroke-linejoin="bevel" width="256" height="256"/><path id="shape1" transform="matrix(0.72 0 0 0.72 46.08 23.039998970501)" fill="none" stroke="#000000" stroke-width="16" stroke-linecap="round" stroke-linejoin="round" d="M55.83 24C51.1277 16.6413 44.6466 10.5843 36.9868 6.39005C29.3271 2.19583 20.7329 -0.00204651 12 1.42986e-06C8.11534 6.71625 5.78512 14.2186 5.18119 21.9539C4.57725 29.6891 5.71482 37.4622 8.51 44.7C3.03808 52.7579 0.0760554 62.2601 0 72L0 80C0 92.7255 5.06058 104.943 14.0589 113.941C23.0572 122.939 35.2745 128 48 128L96 128C108.726 128 120.943 122.939 129.941 113.941C138.939 104.943 144 92.7255 144 80L144 72C143.924 62.2601 140.962 52.7579 135.49 44.7C138.285 37.4622 139.423 29.6891 138.819 21.9539C138.215 14.2186 135.885 6.71625 132 1.42986e-06C123.267 -0.00204651 114.673 2.19583 107.013 6.39005C99.3534 10.5843 92.8723 16.6413 88.17 24Z" sodipodi:nodetypes="ccccccccccccccccccc"/><path id="shape2" transform="matrix(0.72 0 0 0.72 74.88 115.2)" fill="none" stroke="#000000" stroke-width="16" stroke-linecap="round" stroke-linejoin="round" d="M0 72L0 32C0 23.5163 3.37372 15.3714 9.37258 9.37258C15.3714 3.37372 23.5163 0 32 0L32 0C40.4837 0 48.6286 3.37372 54.6274 9.37258C60.6263 15.3714 64 23.5163 64 32L64 72" sodipodi:nodetypes="cccccccc"/><path id="shape3" transform="matrix(0.72 0 0 0.72 5.76 103.68)" fill="none" stroke="#000000" stroke-width="16" stroke-linecap="round" stroke-linejoin="round" d="M96 64L64 64C55.5163 64 47.3714 60.6263 41.3726 54.6274C35.3737 48.6286 32 40.4837 32 32C32 23.5163 28.6263 15.3714 22.6274 9.37258C16.6286 3.37372 8.48367 0 0 0" sodipodi:nodetypes="cccccc"/>
</svg>
