<?xml version="1.0" standalone="no"?>
<!DOCTYPE svg PUBLIC "-//W3C//DTD SVG 20010904//EN" "http://www.w3.org/TR/2001/REC-SVG-20010904/DTD/svg10.dtd">
<!-- Created using Krita: https://krita.org -->
<svg xmlns="http://www.w3.org/2000/svg" 
    xmlns:xlink="http://www.w3.org/1999/xlink"
    xmlns:krita="http://krita.org/namespaces/svg/krita"
    xmlns:sodipodi="http://sodipodi.sourceforge.net/DTD/sodipodi-0.dtd"
    width="184.32pt"
    height="184.32pt"
    viewBox="0 0 184.32 184.32">
<defs/>
<rect id="shape0" transform="matrix(0.72 0 0 0.72 0 0)" fill="none" stroke-opacity="0" stroke="#000000" stroke-width="0" stroke-linecap="square" stroke-linejoin="bevel" width="256" height="256"/><circle id="shape1" transform="matrix(0.72 0 0 0.72 23.04 23.04)" r="96" cx="96" cy="96" fill="none" stroke="#33cc99" stroke-width="16" stroke-linecap="round" stroke-linejoin="round"/><path id="shape2" transform="matrix(0.72 0 0 0.72 54.6336 24.6168)" fill="none" stroke="#33cc99" stroke-width="16" stroke-linecap="round" stroke-linejoin="round" d="M0 89.07L13.32 65.81C14.0231 64.5922 15.035 63.581 16.2533 62.8788C17.4716 62.1766 18.8538 61.8079 20.26 61.81L36.97 61.81C38.3209 61.8122 39.6501 61.4679 40.83 60.81L53.12 54.05C53.6607 53.7591 54.1616 53.3994 54.61 52.98L81.53 28.65C82.8691 27.432 83.756 25.7949 84.0448 24.0079C84.3335 22.2209 84.0074 20.3877 83.12 18.81L72.62 0" sodipodi:nodetypes="cccccccccccc"/><path id="shape3" transform="matrix(0.72 0 0 0.72 39.8668842751037 38.3256)" fill="none" stroke="#33cc99" stroke-width="16" stroke-linecap="round" stroke-linejoin="round" d="M12.4093 0L0.629327 27.85C-0.166098 29.7347 -0.209068 31.8546 0.509327 33.77L12.0093 64.44C12.4818 65.693 13.2615 66.8076 14.2765 67.6812C15.2915 68.5547 16.5099 69.1595 17.8193 69.44L39.2493 74.05C40.4379 74.3049 41.5529 74.8274 42.5093 75.5776C43.4657 76.3279 44.2387 77.2863 44.7693 78.38L48.5693 86.25C49.2247 87.6019 50.2479 88.7422 51.5212 89.5398C52.7944 90.3373 54.2669 90.7603 55.7693 90.76L69.5693 90.76" sodipodi:nodetypes="ccccccccccccc"/><path id="shape4" transform="matrix(0.72 0 0 0.72 80.639056585191 97.9183383465699)" fill="none" stroke="#33cc99" stroke-width="16" stroke-linecap="round" stroke-linejoin="round" d="M101.091 36.4823L48.7113 4.26231C47.7588 3.68167 46.6966 3.30377 45.5913 3.15231L22.7713 0.0723079C21.0577 -0.159698 19.3142 0.170052 17.8036 1.01184C16.2931 1.85363 15.0955 3.16292 14.3913 4.74231L0.69131 35.4823C0.0546612 36.9126 -0.148336 38.4988 0.107604 40.0433C0.363545 41.5879 1.06734 43.0238 2.13131 44.1723L21.8713 64.5023C22.727 65.4223 23.354 66.531 23.7015 67.7384C24.0489 68.9458 24.1071 70.2182 23.8713 71.4523L20.7013 87.8923" sodipodi:nodetypes="ccccccccccccc"/>
</svg>
